# xmcd CD database file
#
# Track frame offsets:
#	200
#	23390
#	35670
#	62775
#	75147
#	92722
#	120987
#	142540
#	163670
#	182490
#	201375
#	216157
#	230395
#
# Disc length: 3356 seconds
#
# Revision: 2
# Processed by: cddbd v1.4PL0 Copyright (c) Steve Scherf et al.
# Submitted via: CDex 1.40Release
#
DISCID=990d1a0d
DTITLE=Steve Earle and The Dukes - The Hard Way
DYEAR=1990
DGENRE=Country
TTITLE0=The Other Kind
TTITLE1=Promise You Anything
TTITLE2=Esmerelda's Hollywood
TTITLE3=Hopeless Romantics
TTITLE4=This Highway's Mine (Roadmaster)
TTITLE5=Billy Austin
TTITLE6=Justice In Ontario
TTITLE7=Have Mercy
TTITLE8=When The People Find Out
TTITLE9=Country Girl
TTITLE10=Regular Guy
TTITLE11=West Nashville Boogie
TTITLE12=Close Your Eyes
EXTD=YEAR: 1990 ID3G: 2
EXTT0=
EXTT1=
EXTT2=
EXTT3=
EXTT4=
EXTT5=
EXTT6=
EXTT7=
EXTT8=
EXTT9=
EXTT10=
EXTT11=
EXTT12=
PLAYORDER=
